<svg xmlns="http://www.w3.org/2000/svg" width="456" height="456" viewBox="0 0 456 456" fill="none">
<path d="M55.6562 0.0387869L155.666 172.208C216.698 0.0387874 156.338 170.527 216.698 0.0387869C269.12 -0.0484836 216.698 0.0387869 269.088 0.0387869C341.267 242.815 270.169 0.0387874 341.267 242.815L406.148 200.282L431.288 271.926L363.687 318.809L373.279 349.483L444.026 304.345L456 338.543L381.318 378.989C389.095 405.633 395.936 429.17 404.316 455.721L325.627 455.844L314.508 412.821L236.017 455.399L228.733 443.096L308.717 392.29L300.214 358.643L211.587 413.947C166.785 334.742 191.119 378.14 166.785 334.742L133.427 455.843H57.1827L123.898 264.624L0 35.1723L55.6562 0.0387869Z" fill="#595375"/>
<path d="M230.314 100.502L280.152 281.75L235.098 311.816L192.192 237.532L230.314 100.497V100.502Z" fill="#030306" fill-opacity="0.78"/>
</svg>
